<mxfile host="Electron" modified="2023-09-14T07:28:55.538Z" agent="Mozilla/5.0 (Windows NT 10.0; Win64; x64) AppleWebKit/537.36 (KHTML, like Gecko) draw.io/21.6.1 Chrome/112.0.5615.204 Electron/24.6.1 Safari/537.36" etag="TgZNQ1psiP6uOVsfvhC2" version="21.6.1" type="device">
  <diagram name="第 1 页" id="uKQnckuGB_oqDtlKrPz5">
    <mxGraphModel dx="3015" dy="2023" grid="1" gridSize="10" guides="1" tooltips="1" connect="1" arrows="1" fold="1" page="1" pageScale="1" pageWidth="1200" pageHeight="1920" math="1" shadow="0">
      <root>
        <mxCell id="0" />
        <mxCell id="1" parent="0" />
        <mxCell id="PHH8fjHEo_8SI4OXQQ06-1" value="Linear Regression in Math" style="rounded=1;whiteSpace=wrap;html=1;fontSize=18;fillColor=#e1d5e7;strokeColor=#9673a6;" parent="1" vertex="1">
          <mxGeometry x="120" y="120" width="960" height="60" as="geometry" />
        </mxCell>
        <mxCell id="nz-Hh0ZINKgkWis8mHxT-1" value="Analytical solution and Loss function" style="rounded=1;whiteSpace=wrap;html=1;fillColor=#fff2cc;strokeColor=#d6b656;" parent="1" vertex="1">
          <mxGeometry x="120" y="520" width="120" height="840" as="geometry" />
        </mxCell>
        <mxCell id="nz-Hh0ZINKgkWis8mHxT-2" value="Linear Regression&lt;br&gt;Expression" style="rounded=1;whiteSpace=wrap;html=1;fillColor=#fff2cc;strokeColor=#d6b656;" parent="1" vertex="1">
          <mxGeometry x="120" y="240" width="120" height="240" as="geometry" />
        </mxCell>
        <mxCell id="nz-Hh0ZINKgkWis8mHxT-3" value="`haty=omega_1x_1+omega_2x_2+...+omega_nx_n+b`" style="text;html=1;align=center;verticalAlign=middle;whiteSpace=wrap;rounded=1;dashed=1;fillColor=#f5f5f5;fontColor=#333333;strokeColor=#666666;dashPattern=1 1;" parent="1" vertex="1">
          <mxGeometry x="280" y="320" width="240" height="160" as="geometry" />
        </mxCell>
        <mxCell id="nz-Hh0ZINKgkWis8mHxT-5" value="Expression 1(for single sample)" style="rounded=1;whiteSpace=wrap;html=1;fillColor=#fff2cc;strokeColor=#d6b656;" parent="1" vertex="1">
          <mxGeometry x="280" y="240" width="240" height="60" as="geometry" />
        </mxCell>
        <mxCell id="nz-Hh0ZINKgkWis8mHxT-6" value="Expression 2(for single sample)" style="rounded=1;whiteSpace=wrap;html=1;fillColor=#fff2cc;strokeColor=#d6b656;" parent="1" vertex="1">
          <mxGeometry x="560" y="240" width="240" height="60" as="geometry" />
        </mxCell>
        <mxCell id="nz-Hh0ZINKgkWis8mHxT-7" value="Expression 3(for multiple samples)" style="rounded=1;whiteSpace=wrap;html=1;fillColor=#fff2cc;strokeColor=#d6b656;" parent="1" vertex="1">
          <mxGeometry x="840" y="240" width="240" height="60" as="geometry" />
        </mxCell>
        <mxCell id="nz-Hh0ZINKgkWis8mHxT-8" value="`haty=w^Tx_n+b`" style="text;html=1;align=center;verticalAlign=middle;whiteSpace=wrap;rounded=1;dashed=1;fillColor=#f5f5f5;fontColor=#333333;strokeColor=#666666;dashPattern=1 1;" parent="1" vertex="1">
          <mxGeometry x="560" y="320" width="240" height="160" as="geometry" />
        </mxCell>
        <mxCell id="nz-Hh0ZINKgkWis8mHxT-9" value="`haty=Xw+b`&lt;br&gt;`haty=Xw(X&amp;nbsp; i nclude&amp;nbsp; b)`" style="text;html=1;align=center;verticalAlign=middle;whiteSpace=wrap;rounded=1;dashed=1;fillColor=#f5f5f5;fontColor=#333333;strokeColor=#666666;dashPattern=1 1;" parent="1" vertex="1">
          <mxGeometry x="840" y="320" width="240" height="160" as="geometry" />
        </mxCell>
        <mxCell id="nz-Hh0ZINKgkWis8mHxT-20" value="" style="edgeStyle=orthogonalEdgeStyle;rounded=0;orthogonalLoop=1;jettySize=auto;html=1;endArrow=blockThin;endFill=1;" parent="1" source="nz-Hh0ZINKgkWis8mHxT-12" target="nz-Hh0ZINKgkWis8mHxT-19" edge="1">
          <mxGeometry relative="1" as="geometry" />
        </mxCell>
        <mxCell id="nz-Hh0ZINKgkWis8mHxT-22" style="edgeStyle=orthogonalEdgeStyle;rounded=0;orthogonalLoop=1;jettySize=auto;html=1;entryX=0.5;entryY=0;entryDx=0;entryDy=0;dashed=1;endArrow=blockThin;endFill=1;" parent="1" source="nz-Hh0ZINKgkWis8mHxT-12" target="nz-Hh0ZINKgkWis8mHxT-13" edge="1">
          <mxGeometry relative="1" as="geometry">
            <Array as="points">
              <mxPoint x="660" y="600" />
              <mxPoint x="320" y="600" />
            </Array>
          </mxGeometry>
        </mxCell>
        <mxCell id="nz-Hh0ZINKgkWis8mHxT-12" value="Loss Function minimization" style="rounded=1;whiteSpace=wrap;html=1;fillColor=#f8cecc;strokeColor=#b85450;" parent="1" vertex="1">
          <mxGeometry x="600" y="520" width="120" height="60" as="geometry" />
        </mxCell>
        <mxCell id="nz-Hh0ZINKgkWis8mHxT-34" style="edgeStyle=orthogonalEdgeStyle;rounded=0;orthogonalLoop=1;jettySize=auto;html=1;dashed=1;endArrow=blockThin;endFill=1;" parent="1" source="nz-Hh0ZINKgkWis8mHxT-13" target="nz-Hh0ZINKgkWis8mHxT-33" edge="1">
          <mxGeometry relative="1" as="geometry" />
        </mxCell>
        <mxCell id="fgzM-fNNSey3PHn4vmNB-1" style="edgeStyle=orthogonalEdgeStyle;rounded=0;orthogonalLoop=1;jettySize=auto;html=1;entryX=0;entryY=0.5;entryDx=0;entryDy=0;endArrow=blockThin;endFill=1;" parent="1" source="nz-Hh0ZINKgkWis8mHxT-13" target="nz-Hh0ZINKgkWis8mHxT-21" edge="1">
          <mxGeometry relative="1" as="geometry" />
        </mxCell>
        <mxCell id="nz-Hh0ZINKgkWis8mHxT-13" value="Question 1:&lt;br&gt;&lt;br&gt;&amp;nbsp;why MSE could be error function?&lt;br&gt;&lt;b&gt;&lt;br&gt;Answer 1:&lt;br&gt;Perspertive of Normal Distribution&lt;/b&gt;" style="rounded=1;whiteSpace=wrap;html=1;fillColor=#f8cecc;strokeColor=#b85450;" parent="1" vertex="1">
          <mxGeometry x="280" y="640" width="80" height="360" as="geometry" />
        </mxCell>
        <mxCell id="nz-Hh0ZINKgkWis8mHxT-18" value="" style="edgeStyle=orthogonalEdgeStyle;rounded=0;orthogonalLoop=1;jettySize=auto;html=1;endArrow=blockThin;endFill=1;" parent="1" source="nz-Hh0ZINKgkWis8mHxT-14" target="nz-Hh0ZINKgkWis8mHxT-12" edge="1">
          <mxGeometry relative="1" as="geometry" />
        </mxCell>
        <mxCell id="nz-Hh0ZINKgkWis8mHxT-14" value="Linear Regression Expression" style="rounded=1;whiteSpace=wrap;html=1;" parent="1" vertex="1">
          <mxGeometry x="440" y="520" width="120" height="60" as="geometry" />
        </mxCell>
        <mxCell id="nz-Hh0ZINKgkWis8mHxT-17" value="" style="edgeStyle=orthogonalEdgeStyle;rounded=0;orthogonalLoop=1;jettySize=auto;html=1;endArrow=blockThin;endFill=1;" parent="1" source="nz-Hh0ZINKgkWis8mHxT-15" target="nz-Hh0ZINKgkWis8mHxT-14" edge="1">
          <mxGeometry relative="1" as="geometry" />
        </mxCell>
        <mxCell id="nz-Hh0ZINKgkWis8mHxT-15" value="Math pipeline" style="text;html=1;strokeColor=#666666;fillColor=#f5f5f5;align=center;verticalAlign=middle;whiteSpace=wrap;rounded=1;fontColor=#333333;" parent="1" vertex="1">
          <mxGeometry x="280" y="520" width="120" height="60" as="geometry" />
        </mxCell>
        <mxCell id="nz-Hh0ZINKgkWis8mHxT-16" style="edgeStyle=orthogonalEdgeStyle;rounded=0;orthogonalLoop=1;jettySize=auto;html=1;exitX=0.5;exitY=1;exitDx=0;exitDy=0;" parent="1" source="nz-Hh0ZINKgkWis8mHxT-14" target="nz-Hh0ZINKgkWis8mHxT-14" edge="1">
          <mxGeometry relative="1" as="geometry" />
        </mxCell>
        <mxCell id="nz-Hh0ZINKgkWis8mHxT-19" value="Gradient Descent" style="rounded=1;whiteSpace=wrap;html=1;" parent="1" vertex="1">
          <mxGeometry x="760" y="520" width="120" height="60" as="geometry" />
        </mxCell>
        <mxCell id="nz-Hh0ZINKgkWis8mHxT-25" value="" style="edgeStyle=orthogonalEdgeStyle;rounded=0;orthogonalLoop=1;jettySize=auto;html=1;endArrow=blockThin;endFill=1;" parent="1" source="nz-Hh0ZINKgkWis8mHxT-21" target="nz-Hh0ZINKgkWis8mHxT-24" edge="1">
          <mxGeometry relative="1" as="geometry" />
        </mxCell>
        <mxCell id="nz-Hh0ZINKgkWis8mHxT-21" value="&lt;b&gt;Normal Distribution&lt;br&gt;&lt;/b&gt;&lt;br&gt;&lt;br&gt;`p(x)=1/sqrt(2pisigma^2)exp(-(x-mu)^2/(2sigma^2))`" style="text;html=1;align=center;verticalAlign=middle;whiteSpace=wrap;rounded=1;dashed=1;fillColor=#f5f5f5;fontColor=#333333;strokeColor=#666666;dashPattern=1 1;" parent="1" vertex="1">
          <mxGeometry x="400" y="640" width="240" height="160" as="geometry" />
        </mxCell>
        <mxCell id="nz-Hh0ZINKgkWis8mHxT-27" value="" style="edgeStyle=orthogonalEdgeStyle;rounded=0;orthogonalLoop=1;jettySize=auto;html=1;" parent="1" source="nz-Hh0ZINKgkWis8mHxT-24" target="nz-Hh0ZINKgkWis8mHxT-26" edge="1">
          <mxGeometry relative="1" as="geometry" />
        </mxCell>
        <mxCell id="nz-Hh0ZINKgkWis8mHxT-28" value="" style="edgeStyle=orthogonalEdgeStyle;rounded=0;orthogonalLoop=1;jettySize=auto;html=1;endArrow=blockThin;endFill=1;" parent="1" source="nz-Hh0ZINKgkWis8mHxT-24" target="nz-Hh0ZINKgkWis8mHxT-26" edge="1">
          <mxGeometry relative="1" as="geometry" />
        </mxCell>
        <mxCell id="nz-Hh0ZINKgkWis8mHxT-24" value="&lt;b&gt;Likelihood:&lt;br&gt;&lt;/b&gt;&lt;br&gt;&lt;br&gt;&lt;font style=&quot;font-size: 10px;&quot;&gt;`p(y|x)=1/sqrt(2pisigma^2)exp(-(y-w^Tx-b)^2/(2sigma^2))`&lt;/font&gt;" style="text;html=1;align=center;verticalAlign=middle;whiteSpace=wrap;rounded=1;dashed=1;fillColor=#f5f5f5;fontColor=#333333;strokeColor=#666666;dashPattern=1 1;" parent="1" vertex="1">
          <mxGeometry x="680" y="640" width="240" height="160" as="geometry" />
        </mxCell>
        <mxCell id="nz-Hh0ZINKgkWis8mHxT-30" value="" style="edgeStyle=orthogonalEdgeStyle;rounded=0;orthogonalLoop=1;jettySize=auto;html=1;endArrow=blockThin;endFill=1;" parent="1" source="nz-Hh0ZINKgkWis8mHxT-26" target="nz-Hh0ZINKgkWis8mHxT-29" edge="1">
          <mxGeometry relative="1" as="geometry" />
        </mxCell>
        <mxCell id="nz-Hh0ZINKgkWis8mHxT-26" value="&lt;b&gt;Maximum Likelihood:&lt;br&gt;&lt;/b&gt;&lt;br&gt;&lt;br&gt;&lt;font style=&quot;font-size: 12px;&quot;&gt;`p(y|X)=prod_(i=1)^np(y^i|x^i)`&lt;/font&gt;" style="text;html=1;align=center;verticalAlign=middle;whiteSpace=wrap;rounded=1;dashed=1;fillColor=#f5f5f5;fontColor=#333333;strokeColor=#666666;dashPattern=1 1;" parent="1" vertex="1">
          <mxGeometry x="960" y="640" width="240" height="160" as="geometry" />
        </mxCell>
        <mxCell id="nz-Hh0ZINKgkWis8mHxT-32" value="" style="edgeStyle=orthogonalEdgeStyle;rounded=0;orthogonalLoop=1;jettySize=auto;html=1;" parent="1" source="nz-Hh0ZINKgkWis8mHxT-29" target="nz-Hh0ZINKgkWis8mHxT-31" edge="1">
          <mxGeometry relative="1" as="geometry" />
        </mxCell>
        <mxCell id="nz-Hh0ZINKgkWis8mHxT-29" value="&lt;b&gt;Maximum (-log)Likelihood:&lt;br&gt;&lt;/b&gt;&lt;br&gt;&lt;br&gt;&lt;font style=&quot;font-size: 8px;&quot;&gt;`-logp(y|X)=sum_(i=1)^n1/2log(2pisigma^2)+1/(2sigma^2)&lt;br&gt;(y-w^Tx-b)^2`&lt;/font&gt;" style="text;html=1;align=center;verticalAlign=middle;whiteSpace=wrap;rounded=1;dashed=1;fillColor=#f5f5f5;fontColor=#333333;strokeColor=#666666;dashPattern=1 1;" parent="1" vertex="1">
          <mxGeometry x="960" y="840" width="240" height="160" as="geometry" />
        </mxCell>
        <mxCell id="nz-Hh0ZINKgkWis8mHxT-31" value="&lt;b&gt;Now we can see that linear gression are about last part:&amp;nbsp;&lt;br&gt;&lt;/b&gt;&lt;br&gt;&lt;font style=&quot;font-size: 12px;&quot;&gt;`1/(2sigma^2)(y-w^Tx-b)^2`&lt;br&gt;&lt;br&gt;&lt;b&gt;Looks as MSE&lt;/b&gt;&lt;br&gt;&lt;/font&gt;" style="text;html=1;align=center;verticalAlign=middle;whiteSpace=wrap;rounded=1;dashed=1;fillColor=#f5f5f5;fontColor=#333333;strokeColor=#666666;dashPattern=1 1;" parent="1" vertex="1">
          <mxGeometry x="680" y="840" width="240" height="160" as="geometry" />
        </mxCell>
        <mxCell id="nz-Hh0ZINKgkWis8mHxT-33" value="Question 2: &lt;br&gt;&lt;br&gt;How to compute anlytical solution? And what&#39;s the cost?" style="rounded=1;whiteSpace=wrap;html=1;fillColor=#f8cecc;strokeColor=#b85450;" parent="1" vertex="1">
          <mxGeometry x="280" y="1060" width="80" height="300" as="geometry" />
        </mxCell>
        <mxCell id="nz-Hh0ZINKgkWis8mHxT-35" value="&lt;b style=&quot;font-size: 11px;&quot;&gt;&lt;font style=&quot;font-size: 11px;&quot; color=&quot;#ff0000&quot;&gt;Let loss function&#39;s partial derivative of w = 0&lt;/font&gt;&lt;br&gt;&lt;/b&gt;&lt;br&gt;`grad_w||y-Xw||^2 = 0`&lt;br&gt;&lt;br&gt;&lt;b&gt;we get:&lt;/b&gt;&lt;br&gt;&lt;br&gt;`w^* =(X^TX)^-1X^Ty`" style="text;html=1;align=center;verticalAlign=middle;whiteSpace=wrap;rounded=1;dashed=1;fillColor=#f5f5f5;fontColor=#333333;strokeColor=#666666;dashPattern=1 1;" parent="1" vertex="1">
          <mxGeometry x="400" y="1060" width="280" height="300" as="geometry" />
        </mxCell>
        <mxCell id="nz-Hh0ZINKgkWis8mHxT-36" value="Vectorization for speed up" style="rounded=1;whiteSpace=wrap;html=1;fillColor=#fff2cc;strokeColor=#d6b656;" parent="1" vertex="1">
          <mxGeometry x="120" y="1400" width="120" height="240" as="geometry" />
        </mxCell>
        <mxCell id="nz-Hh0ZINKgkWis8mHxT-37" value="&lt;b style=&quot;font-size: 14px;&quot;&gt;Use &#39;tensor&#39; and &#39;numpy&#39; for patch operation and execution&lt;br&gt;Do not use &#39;for&#39; loop&lt;/b&gt;" style="text;html=1;strokeColor=#666666;fillColor=#f5f5f5;align=center;verticalAlign=middle;whiteSpace=wrap;rounded=1;fontColor=#333333;fontSize=14;" parent="1" vertex="1">
          <mxGeometry x="280" y="1480" width="800" height="80" as="geometry" />
        </mxCell>
        <mxCell id="FLtKP-LD_gYdUY_BIFqI-1" value="Minibatch stochastic gradient descent" style="rounded=1;whiteSpace=wrap;html=1;fillColor=#fff2cc;strokeColor=#d6b656;" parent="1" vertex="1">
          <mxGeometry x="120" y="1680" width="120" height="240" as="geometry" />
        </mxCell>
        <mxCell id="FLtKP-LD_gYdUY_BIFqI-5" style="edgeStyle=orthogonalEdgeStyle;rounded=0;orthogonalLoop=1;jettySize=auto;html=1;entryX=0.5;entryY=0;entryDx=0;entryDy=0;endArrow=blockThin;endFill=1;" parent="1" source="FLtKP-LD_gYdUY_BIFqI-2" target="FLtKP-LD_gYdUY_BIFqI-3" edge="1">
          <mxGeometry relative="1" as="geometry" />
        </mxCell>
        <mxCell id="FLtKP-LD_gYdUY_BIFqI-6" style="edgeStyle=orthogonalEdgeStyle;rounded=0;orthogonalLoop=1;jettySize=auto;html=1;entryX=0.5;entryY=0;entryDx=0;entryDy=0;endArrow=blockThin;endFill=1;" parent="1" source="FLtKP-LD_gYdUY_BIFqI-2" target="FLtKP-LD_gYdUY_BIFqI-4" edge="1">
          <mxGeometry relative="1" as="geometry" />
        </mxCell>
        <mxCell id="FLtKP-LD_gYdUY_BIFqI-2" value="`(w,b)larr(w,b)-eta/|frB|sum_(iinfrB)del_(w,b)l^i(w,b)`" style="text;html=1;align=center;verticalAlign=middle;whiteSpace=wrap;rounded=1;dashed=1;fillColor=#f5f5f5;fontColor=#333333;strokeColor=#666666;dashPattern=1 1;fontSize=16;" parent="1" vertex="1">
          <mxGeometry x="280" y="1680" width="800" height="80" as="geometry" />
        </mxCell>
        <mxCell id="FLtKP-LD_gYdUY_BIFqI-3" value="`wlarrw-eta/|frB|sum_(iinfrB)x^i(w^Tx^i+b-y^i)`" style="text;html=1;align=center;verticalAlign=middle;whiteSpace=wrap;rounded=1;dashed=1;fillColor=#f5f5f5;fontColor=#333333;strokeColor=#666666;dashPattern=1 1;fontSize=16;" parent="1" vertex="1">
          <mxGeometry x="280" y="1840" width="360" height="80" as="geometry" />
        </mxCell>
        <mxCell id="FLtKP-LD_gYdUY_BIFqI-4" value="`blarrb-eta/|frB|sum_(iinfrB)(w^Tx^i+b-y^i)`" style="text;html=1;align=center;verticalAlign=middle;whiteSpace=wrap;rounded=1;dashed=1;fillColor=#f5f5f5;fontColor=#333333;strokeColor=#666666;dashPattern=1 1;fontSize=16;" parent="1" vertex="1">
          <mxGeometry x="720" y="1840" width="360" height="80" as="geometry" />
        </mxCell>
      </root>
    </mxGraphModel>
  </diagram>
</mxfile>
